<svg width="24" height="24" viewBox="0 0 24 24" fill="none" xmlns="http://www.w3.org/2000/svg">
<path fill-rule="evenodd" clip-rule="evenodd" d="M15.3 3.832C16.14 2.818 16.704 1.405 16.55 0C15.342 0.049 13.88 0.805 13.015 1.819C12.238 2.717 11.558 4.154 11.742 5.531C13.088 5.636 14.464 4.847 15.302 3.832M18.322 12.75C18.356 16.382 21.508 17.591 21.542 17.607C21.517 17.692 21.04 19.329 19.882 21.02C18.882 22.482 17.844 23.939 16.208 23.969C14.601 23.998 14.085 23.016 12.247 23.016C10.411 23.016 9.83696 23.939 8.31496 23.998C6.73696 24.058 5.53496 22.417 4.52496 20.961C2.46496 17.981 0.88996 12.541 3.00496 8.869C4.05396 7.045 5.93196 5.89 7.96996 5.861C9.51996 5.831 10.983 6.904 11.93 6.904C12.878 6.904 14.656 5.614 16.525 5.803C17.308 5.836 19.504 6.119 20.915 8.184C20.801 8.254 18.294 9.714 18.321 12.75" fill="black"/>
</svg>
