<svg width="58.000000" height="58.000000" viewBox="0 0 58 58" fill="none" xmlns="http://www.w3.org/2000/svg" xmlns:xlink="http://www.w3.org/1999/xlink">
	<desc>
			Created with Pixso.
	</desc>
	<defs>
		<clipPath id="clip246_10076">
			<rect id="fluent:checkmark-circle-16-regular" width="58.000000" height="58.000000" fill="white" fill-opacity="0"/>
		</clipPath>
	</defs>
	<rect id="fluent:checkmark-circle-16-regular" width="58.000000" height="58.000000" fill="#FFFFFF" fill-opacity="0"/>
	<g clip-path="url(#clip246_10076)">
		<path id="Vector" d="M29 7.25C31.85 7.25 34.68 7.81 37.32 8.9C39.96 9.99 42.35 11.6 44.37 13.62C46.39 15.64 48 18.03 49.09 20.67C50.18 23.31 50.75 26.14 50.75 29C50.75 31.85 50.18 34.68 49.09 37.32C48 39.96 46.39 42.35 44.37 44.37C42.35 46.39 39.96 48 37.32 49.09C34.68 50.18 31.85 50.75 29 50.75C23.23 50.75 17.69 48.45 13.62 44.37C9.54 40.3 7.25 34.76 7.25 29C7.25 23.23 9.54 17.69 13.62 13.62C17.69 9.54 23.23 7.25 29 7.25ZM29 10.87C24.19 10.87 19.58 12.78 16.18 16.18C12.78 19.58 10.87 24.19 10.87 29C10.87 33.8 12.78 38.41 16.18 41.81C19.58 45.21 24.19 47.12 29 47.12C33.8 47.12 38.41 45.21 41.81 41.81C45.21 38.41 47.12 33.8 47.12 29C47.12 24.19 45.21 19.58 41.81 16.18C38.41 12.78 33.8 10.87 29 10.87ZM26.28 32.77L36.68 22.34C37 22.02 37.43 21.83 37.88 21.8C38.33 21.78 38.78 21.93 39.13 22.22C39.48 22.51 39.7 22.92 39.76 23.37C39.83 23.82 39.72 24.28 39.46 24.65L39.25 24.9L27.56 36.62C27.26 36.92 26.86 37.11 26.44 37.14C26.02 37.18 25.6 37.07 25.25 36.83L24.99 36.62L18.65 30.28C18.33 29.96 18.14 29.53 18.12 29.08C18.1 28.62 18.25 28.18 18.54 27.83C18.83 27.48 19.24 27.26 19.69 27.2C20.13 27.14 20.59 27.25 20.96 27.51L21.22 27.71L26.28 32.77Z" fill="#554CB6" fill-opacity="1.000000" fill-rule="nonzero"/>
	</g>
</svg>
