<svg width="60.000000" height="60.000000" viewBox="0 0 60 60" fill="none" xmlns="http://www.w3.org/2000/svg" xmlns:xlink="http://www.w3.org/1999/xlink">
	<desc>
			Created with Pixso.
	</desc>
	<defs>
		<clipPath id="clip128_3103">
			<rect id="solar:heart-broken-bold" width="60.000000" height="60.000000" fill="white" fill-opacity="0"/>
		</clipPath>
	</defs>
	<rect id="solar:heart-broken-bold" width="60.000000" height="60.000000" fill="#FFFFFF" fill-opacity="0"/>
	<g clip-path="url(#clip128_3103)">
		<path id="Vector" d="M20.26 45.61C13.24 40.2 5 33.85 5 22.84C5 11.34 17.3 3 28.16 12.03L24.52 20.51C24.35 20.9 24.32 21.34 24.44 21.75C24.55 22.16 24.8 22.52 25.15 22.77L32.24 27.83L26.07 35.03C25.76 35.38 25.6 35.84 25.62 36.32C25.64 36.79 25.83 37.24 26.17 37.57L30.42 41.82L28.14 50.92C26.25 50.29 24.35 48.81 22.4 47.27C21.71 46.73 20.99 46.17 20.26 45.61L20.26 45.61Z" fill="#554CB6" fill-opacity="1.000000" fill-rule="nonzero"/>
		<path id="Vector" d="M32.02 50.86C33.85 50.2 35.7 48.77 37.59 47.27C38.28 46.73 39 46.17 39.73 45.61C46.75 40.2 55 33.85 55 22.84C55 11.55 43.14 3.31 32.44 11.54L28.56 20.6L36.08 25.97C36.3 26.12 36.47 26.31 36.61 26.54C36.74 26.76 36.82 27.01 36.86 27.27C36.89 27.53 36.86 27.79 36.79 28.04C36.71 28.29 36.59 28.52 36.42 28.72L30.05 36.15L33.82 39.92C34.05 40.15 34.22 40.43 34.3 40.75C34.39 41.06 34.39 41.39 34.31 41.7L32.02 50.86Z" fill="#554CB6" fill-opacity="1.000000" fill-rule="nonzero"/>
	</g>
</svg>
