<svg width="97.000000" height="30.000000" viewBox="0 0 97 30" fill="none" xmlns="http://www.w3.org/2000/svg" xmlns:xlink="http://www.w3.org/1999/xlink">
	<desc>
			Created with Pixso.
	</desc>
	<defs/>
	<path id="Vector" d="M43.5 7.96C36.97 1.71 29 6.32 29 12.81C29 19.31 34.82 22.77 39.09 25.87C40.6 26.97 42.05 28 43.5 28C44.95 28 46.39 26.97 47.9 25.87C52.17 22.77 58 19.31 58 12.81C58 6.32 50.02 1.71 43.5 7.96ZM43.5 22.83Q43.01 22.54 42.03 21.83L42.03 21.83Q41.6 21.52 40.74 20.91Q34 16.12 34 12.81Q34 11.9 34.41 11.26Q34.85 10.59 35.74 10.21Q36.16 10.03 36.6 9.99Q38.23 9.84 40.04 11.57L43.49 14.88L46.95 11.57Q48.76 9.84 50.39 9.99Q50.83 10.04 51.25 10.21Q52.14 10.59 52.58 11.26Q53 11.9 53 12.81Q53 16.12 46.24 20.91Q45.38 21.52 44.96 21.83Q43.99 22.54 43.5 22.83Z" fill="#554CB6" fill-opacity="1.000000" fill-rule="evenodd"/>
	<path id="Hola" d="M68.79 30Q65.4 30 63.39 28.33Q63.25 28.21 63.11 28.08Q62.8 27.78 62.54 27.44Q61.07 25.57 61.07 22.56L61.07 0L67.31 0L67.31 22.2C67.31 23.1 67.54 23.81 67.99 24.32C68.47 24.8 69.14 25.04 69.99 25.04L69.99 25.04Q70.47 25.04 70.95 24.91C71.3 24.84 71.56 24.74 71.75 24.63L72.03 29.48Q71.58 29.63 71.11 29.73L71.11 29.73Q69.98 30 68.79 30ZM25.67 1.67L25.67 29.67L19.2 29.67L19.2 18.2L6.47 18.2L6.47 29.67L0 29.67L0 1.67L6.47 1.67L6.47 12.72L19.2 12.72L19.2 1.67L25.67 1.67ZM96.54 29.67L96.54 8.15L90.3 8.15L90.3 10.43Q89.7 9.76 88.98 9.27Q86.92 7.84 83.86 7.84C81.84 7.84 80 8.29 78.34 9.19Q77.38 9.73 76.58 10.45Q75.35 11.55 74.5 13.08Q73.1 15.6 73.1 18.91Q73.1 22.24 74.5 24.76Q75.35 26.28 76.58 27.38Q77.38 28.1 78.34 28.63C80 29.54 81.84 30 83.86 30Q87.17 30 89.31 28.41Q90.01 27.89 90.58 27.2L90.58 29.67L96.54 29.67ZM88.86 23.28C87.82 24.34 86.52 24.87 84.94 24.87Q83.46 24.87 82.3 24.27Q81.58 23.89 80.98 23.28C79.94 22.18 79.42 20.73 79.42 18.91C79.42 17.1 79.94 15.66 80.98 14.6Q81.62 13.93 82.39 13.53Q83.52 12.96 84.94 12.96C86.52 12.96 87.82 13.5 88.86 14.6C89.9 15.66 90.42 17.1 90.42 18.91C90.42 20.73 89.9 22.18 88.86 23.28Z" fill="#554CB6" fill-opacity="1.000000" fill-rule="evenodd"/>
</svg>
