<svg width="97" height="30" viewBox="0 0 97 30" fill="none" xmlns="http://www.w3.org/2000/svg">
<path d="M46.4338 23.8544L46.4367 23.8524C46.8848 23.5272 47.3311 23.2101 47.7726 22.8964C49.5835 21.6097 51.3138 20.3803 52.7528 18.8874C54.458 17.1183 55.5 15.2176 55.5 12.8198C55.5 10.623 54.1521 8.72666 52.2265 7.91564C50.4145 7.15245 47.8352 7.27231 45.2289 9.76769L43.4998 11.4232L41.7709 9.76751C39.1645 7.27148 36.5853 7.15151 34.7734 7.91452C32.8479 8.72537 31.5 10.6216 31.5 12.8185C31.5 15.2168 32.5422 17.1175 34.2477 18.8869C35.6844 20.3773 37.4105 21.6048 39.2174 22.8897C39.6623 23.206 40.1122 23.5259 40.5638 23.8541L46.4338 23.8544ZM46.4338 23.8544C45.6606 24.4173 45.0554 24.8466 44.4965 25.1475C43.941 25.4467 43.6404 25.5 43.5 25.5C43.3602 25.5 43.0598 25.4468 42.5035 25.1472M46.4338 23.8544L42.5035 25.1472M42.5035 25.1472C41.9439 24.8459 41.3389 24.4169 40.5644 23.8545L42.5035 25.1472Z" stroke="white" stroke-width="5"/>
<path d="M25.68 1.68V29.68H19.2V18.2H6.48V29.68H0V1.68H6.48V12.72H19.2V1.68H25.68Z" fill="white"/>
<path d="M68.7956 30C66.369 30 64.4756 29.36 63.1156 28.08C61.7556 26.7733 61.0756 24.9333 61.0756 22.56V0H67.3156V22.2C67.3156 23.1067 67.5423 23.8133 67.9956 24.32C68.4756 24.8 69.1423 25.04 69.9956 25.04C70.3156 25.04 70.6356 25 70.9556 24.92C71.3023 24.84 71.569 24.7467 71.7556 24.64L72.0356 29.48C70.9956 29.8267 69.9156 30 68.7956 30Z" fill="white"/>
<path d="M96.5484 8.16V29.68H90.5884V27.2C89.0418 29.0667 86.8018 30 83.8684 30C81.8418 30 80.0018 29.5467 78.3484 28.64C76.7218 27.7333 75.4418 26.44 74.5084 24.76C73.5751 23.08 73.1084 21.1333 73.1084 18.92C73.1084 16.7067 73.5751 14.76 74.5084 13.08C75.4418 11.4 76.7218 10.1067 78.3484 9.2C80.0018 8.29333 81.8418 7.84 83.8684 7.84C86.6151 7.84 88.7618 8.70667 90.3084 10.44V8.16H96.5484ZM84.9484 24.88C86.5218 24.88 87.8284 24.3467 88.8684 23.28C89.9084 22.1867 90.4284 20.7333 90.4284 18.92C90.4284 17.1067 89.9084 15.6667 88.8684 14.6C87.8284 13.5067 86.5218 12.96 84.9484 12.96C83.3484 12.96 82.0284 13.5067 80.9884 14.6C79.9484 15.6667 79.4284 17.1067 79.4284 18.92C79.4284 20.7333 79.9484 22.1867 80.9884 23.28C82.0284 24.3467 83.3484 24.88 84.9484 24.88Z" fill="white"/>
</svg>
