<svg width="73.000000" height="23.000000" viewBox="0 0 73 23" fill="none" xmlns="http://www.w3.org/2000/svg" xmlns:xlink="http://www.w3.org/1999/xlink">
	<desc>
			Created with Pixso.
	</desc>
	<defs/>
	<path id="Vector" d="M32.62 5.97C27.73 1.28 21.75 4.74 21.75 9.61C21.75 14.48 26.12 17.08 29.32 19.4C30.45 20.22 31.53 21 32.62 21C33.71 21 34.79 20.22 35.92 19.4C39.12 17.08 43.5 14.48 43.5 9.61C43.5 4.74 37.51 1.28 32.62 5.97ZM31.52 16.37L31.52 16.37Q31.2 16.14 30.55 15.68Q29.81 15.15 29.44 14.88Q28.85 14.44 28.4 14.09Q27.37 13.26 26.74 12.54Q26.1 11.81 25.8 11.11Q25.71 10.92 25.65 10.72Q25.5 10.19 25.5 9.61Q25.5 9.28 25.59 8.98Q25.68 8.7 25.86 8.44Q26.04 8.16 26.29 7.96Q26.52 7.78 26.8 7.66Q27 7.57 27.22 7.53Q27.64 7.45 28.1 7.55Q29.05 7.74 30.03 8.67L32.62 11.16L35.21 8.68Q36.19 7.74 37.14 7.55Q37.6 7.45 38.02 7.53Q38.23 7.57 38.44 7.66Q38.72 7.78 38.95 7.96Q39.2 8.16 39.38 8.44Q39.56 8.7 39.65 8.98Q39.75 9.28 39.75 9.61Q39.75 10.19 39.59 10.71Q39.53 10.92 39.44 11.11Q39.14 11.81 38.5 12.55Q37.87 13.27 36.84 14.09Q36.39 14.45 35.8 14.88Q35.43 15.15 34.68 15.68Q34.04 16.14 33.72 16.37Q32.99 16.9 32.62 17.12Q32.46 17.03 32.26 16.89Q32.01 16.72 31.52 16.37Z" fill="#6E9FC2" fill-opacity="1.000000" fill-rule="evenodd"/>
	<path id="Hola" d="M47.54 21.24Q47.44 21.15 47.33 21.06C46.31 20.08 45.8 18.7 45.8 16.92L45.8 0L50.48 0L50.48 16.65C50.48 17.33 50.65 17.86 50.99 18.24C51.35 18.6 51.85 18.78 52.49 18.78C52.73 18.78 52.97 18.75 53.21 18.69C53.47 18.62 53.67 18.56 53.81 18.48L54.02 22.11C53.24 22.37 52.43 22.5 51.59 22.5Q49.05 22.5 47.54 21.24ZM19.25 1.26L19.25 22.26L14.39 22.26L14.39 13.65L4.85 13.65L4.85 22.26L0 22.26L0 1.26L4.85 1.26L4.85 9.53L14.39 9.53L14.39 1.26L19.25 1.26ZM72.41 22.26L72.41 6.12L67.73 6.12L67.73 7.83Q67.28 7.32 66.74 6.95Q65.19 5.88 62.9 5.88C61.38 5.88 60 6.22 58.76 6.9Q58.03 7.3 57.43 7.84Q56.51 8.66 55.88 9.81C55.18 11.07 54.83 12.53 54.83 14.19C54.83 15.85 55.18 17.31 55.88 18.57Q56.51 19.71 57.43 20.53Q58.03 21.07 58.76 21.48C60 22.16 61.38 22.5 62.9 22.5C65.1 22.5 66.78 21.8 67.94 20.4L67.94 22.26L72.41 22.26ZM66.65 17.45C65.87 18.26 64.89 18.66 63.71 18.66C62.51 18.66 61.52 18.26 60.74 17.45C59.96 16.64 59.57 15.55 59.57 14.19C59.57 12.83 59.96 11.75 60.74 10.95C61.52 10.13 62.51 9.71 63.71 9.71C64.89 9.71 65.87 10.13 66.65 10.95C67.43 11.75 67.82 12.83 67.82 14.19C67.82 15.55 67.43 16.64 66.65 17.45Z" fill="#6E9FC2" fill-opacity="1.000000" fill-rule="evenodd"/>
</svg>
