<svg width="28.000000" height="22.000000" viewBox="0 0 28 22" fill="none" xmlns="http://www.w3.org/2000/svg" xmlns:xlink="http://www.w3.org/1999/xlink">
	<desc>
			Created with Pixso.
	</desc>
	<defs/>
	<path id="Vector" d="M22.85 9.78C22.85 9.78 23.22 11.61 23.3 11.99L21.68 11.99C21.84 11.55 22.45 9.86 22.45 9.86C22.44 9.87 22.61 9.41 22.71 9.12L22.85 9.78ZM28 2.35L28 19.64C28 20.94 26.95 22 25.66 22L2.33 22C1.04 22 0 20.94 0 19.64L0 2.35C0 1.05 1.04 0 2.33 0L25.66 0C26.95 0 28 1.05 28 2.35ZM7.41 14.69L10.48 7.07L8.41 7.07L6.5 12.27L6.29 11.22L5.61 7.71C5.5 7.22 5.16 7.09 4.73 7.07L1.58 7.07L1.55 7.22C2.32 7.42 3 7.7 3.6 8.06L5.34 14.69L7.41 14.69ZM12 14.7L13.22 7.07L11.27 7.07L10.05 14.7L12 14.7ZM18.8 12.2C18.81 11.33 18.28 10.67 17.16 10.13C16.47 9.78 16.06 9.54 16.06 9.18C16.07 8.86 16.41 8.52 17.18 8.52C17.82 8.51 18.28 8.66 18.63 8.81L18.81 8.9L19.08 7.25C18.69 7.1 18.08 6.92 17.33 6.92C15.39 6.92 14.04 7.97 14.03 9.45C14.01 10.54 15 11.15 15.74 11.52C16.49 11.89 16.75 12.14 16.75 12.47C16.74 12.98 16.14 13.21 15.58 13.21C14.8 13.21 14.38 13.09 13.75 12.81L13.49 12.68L13.22 14.4C13.67 14.61 14.52 14.8 15.39 14.81C17.45 14.81 18.78 13.78 18.8 12.2ZM25.66 14.7L24.09 7.07L22.58 7.07C22.11 7.07 21.75 7.2 21.55 7.7L18.65 14.7L20.7 14.7C20.7 14.7 21.04 13.75 21.11 13.55L23.62 13.55C23.68 13.82 23.85 14.7 23.85 14.7L25.66 14.7Z" fill="#0F2296" fill-opacity="1.000000" fill-rule="nonzero"/>
</svg>
